{
	"asset":{
		"generator":"Khronos glTF Blender I/O v5.0.21",
		"version":"2.0"
	},
	"extensionsUsed":[
		"KHR_materials_specular",
		"KHR_materials_ior"
	],
	"scene":0,
	"scenes":[
		{
			"name":"Scene",
			"nodes":[
				0,
				1,
				2,
				3,
				4
			]
		}
	],
	"nodes":[
		{
			"mesh":0,
			"name":"Cone",
			"scale":[
				0.10000000149011612,
				0.10000000149011612,
				0.10000000149011612
			]
		},
		{
			"mesh":1,
			"name":"Cube.001_Cube.002",
			"scale":[
				0.10000000149011612,
				0.10000002384185791,
				0.10000002384185791
			]
		},
		{
			"mesh":2,
			"name":"Sphere",
			"scale":[
				0.10000000149011612,
				0.10000002384185791,
				0.10000002384185791
			]
		},
		{
			"mesh":3,
			"name":"Cube_Cube.001",
			"scale":[
				0.10000000149011612,
				0.10000002384185791,
				0.10000002384185791
			]
		},
		{
			"mesh":4,
			"name":"Plane",
			"scale":[
				0.10000000149011612,
				0.10000002384185791,
				0.10000002384185791
			]
		}
	],
	"materials":[
		{
			"doubleSided":true,
			"name":"Material.003",
			"pbrMetallicRoughness":{
				"baseColorFactor":[
					0,
					0.2636539936065674,
					0.800000011920929,
					1
				],
				"metallicFactor":0,
				"roughnessFactor":0.800000011920929
			}
		},
		{
			"doubleSided":true,
			"name":"Material.005",
			"pbrMetallicRoughness":{
				"baseColorFactor":[
					0,
					0,
					0,
					1
				],
				"metallicFactor":0,
				"roughnessFactor":0.5
			}
		},
		{
			"doubleSided":true,
			"extensions":{
				"KHR_materials_specular":{
					"specularFactor":0
				},
				"KHR_materials_ior":{
					"ior":0
				}
			},
			"name":"Material.001",
			"pbrMetallicRoughness":{
				"baseColorFactor":[
					0.800000011920929,
					0,
					0.002391000045463443,
					1
				],
				"roughnessFactor":0.23846153914928436
			}
		},
		{
			"doubleSided":true,
			"name":"Material.002",
			"pbrMetallicRoughness":{
				"baseColorFactor":[
					0.006971000228077173,
					0.800000011920929,
					0,
					1
				],
				"metallicFactor":0
			}
		},
		{
			"doubleSided":true,
			"name":"Material.004",
			"pbrMetallicRoughness":{
				"baseColorFactor":[
					0.800000011920929,
					0.800000011920929,
					0.800000011920929,
					1
				],
				"metallicFactor":0,
				"roughnessFactor":0.5
			}
		}
	],
	"meshes":[
		{
			"name":"Cone.001",
			"primitives":[
				{
					"attributes":{
						"POSITION":0,
						"NORMAL":1,
						"TEXCOORD_0":2,
						"TANGENT":3
					},
					"indices":4,
					"material":0
				}
			]
		},
		{
			"name":"Cube.001_Cube.001",
			"primitives":[
				{
					"attributes":{
						"POSITION":5,
						"NORMAL":6,
						"TEXCOORD_0":7,
						"TANGENT":8
					},
					"indices":9,
					"material":1
				}
			]
		},
		{
			"name":"Sphere.001",
			"primitives":[
				{
					"attributes":{
						"POSITION":10,
						"NORMAL":11,
						"TEXCOORD_0":12,
						"TANGENT":13
					},
					"indices":14,
					"material":2
				}
			]
		},
		{
			"name":"Cube_Cube.002",
			"primitives":[
				{
					"attributes":{
						"POSITION":15,
						"NORMAL":16,
						"TEXCOORD_0":17,
						"TANGENT":18
					},
					"indices":9,
					"material":3
				}
			]
		},
		{
			"name":"Plane.001",
			"primitives":[
				{
					"attributes":{
						"POSITION":19,
						"NORMAL":20,
						"TEXCOORD_0":21,
						"TANGENT":22
					},
					"indices":23,
					"material":4
				}
			]
		}
	],
	"accessors":[
		{
			"bufferView":0,
			"componentType":5126,
			"count":65,
			"max":[
				0.019999999552965164,
				0.03999996557831764,
				0.07999999821186066
			],
			"min":[
				-0.019999999552965164,
				-4.4186801773093975e-08,
				0.03999999910593033
			],
			"type":"VEC3"
		},
		{
			"bufferView":1,
			"componentType":5126,
			"count":65,
			"type":"VEC3"
		},
		{
			"bufferView":2,
			"componentType":5126,
			"count":65,
			"type":"VEC2"
		},
		{
			"bufferView":3,
			"componentType":5126,
			"count":65,
			"type":"VEC4"
		},
		{
			"bufferView":4,
			"componentType":5123,
			"count":186,
			"type":"SCALAR"
		},
		{
			"bufferView":5,
			"componentType":5126,
			"count":24,
			"max":[
				-0.09799999743700027,
				0.08000005036592484,
				0.1000000461935997
			],
			"min":[
				-0.10199999809265137,
				-5.523350665725957e-08,
				-0.10000000149011612
			],
			"type":"VEC3"
		},
		{
			"bufferView":6,
			"componentType":5126,
			"count":24,
			"type":"VEC3"
		},
		{
			"bufferView":7,
			"componentType":5126,
			"count":24,
			"type":"VEC2"
		},
		{
			"bufferView":8,
			"componentType":5126,
			"count":24,
			"type":"VEC4"
		},
		{
			"bufferView":9,
			"componentType":5123,
			"count":36,
			"type":"SCALAR"
		},
		{
			"bufferView":10,
			"componentType":5126,
			"count":559,
			"max":[
				0.019999990239739418,
				0.040000032633543015,
				-0.03999999538064003
			],
			"min":[
				-0.019999980926513672,
				3.314010399435574e-08,
				-0.07999997586011887
			],
			"type":"VEC3"
		},
		{
			"bufferView":11,
			"componentType":5126,
			"count":559,
			"type":"VEC3"
		},
		{
			"bufferView":12,
			"componentType":5126,
			"count":559,
			"type":"VEC2"
		},
		{
			"bufferView":13,
			"componentType":5126,
			"count":559,
			"type":"VEC4"
		},
		{
			"bufferView":14,
			"componentType":5123,
			"count":2880,
			"type":"SCALAR"
		},
		{
			"bufferView":15,
			"componentType":5126,
			"count":24,
			"max":[
				0.019999999552965164,
				0.040000010281801224,
				0.020000021904706955
			],
			"min":[
				-0.019999999552965164,
				-1.1046700443273494e-08,
				-0.019999999552965164
			],
			"type":"VEC3"
		},
		{
			"bufferView":16,
			"componentType":5126,
			"count":24,
			"type":"VEC3"
		},
		{
			"bufferView":17,
			"componentType":5126,
			"count":24,
			"type":"VEC2"
		},
		{
			"bufferView":18,
			"componentType":5126,
			"count":24,
			"type":"VEC4"
		},
		{
			"bufferView":19,
			"componentType":5126,
			"count":4,
			"max":[
				0.10000000149011612,
				5.523350665725957e-08,
				0.10000000149011612
			],
			"min":[
				-0.10000000149011612,
				-5.523350665725957e-08,
				-0.10000000149011612
			],
			"type":"VEC3"
		},
		{
			"bufferView":20,
			"componentType":5126,
			"count":4,
			"type":"VEC3"
		},
		{
			"bufferView":21,
			"componentType":5126,
			"count":4,
			"type":"VEC2"
		},
		{
			"bufferView":22,
			"componentType":5126,
			"count":4,
			"type":"VEC4"
		},
		{
			"bufferView":23,
			"componentType":5123,
			"count":6,
			"type":"SCALAR"
		}
	],
	"bufferViews":[
		{
			"buffer":0,
			"byteLength":780,
			"byteOffset":0,
			"target":34962
		},
		{
			"buffer":0,
			"byteLength":780,
			"byteOffset":780,
			"target":34962
		},
		{
			"buffer":0,
			"byteLength":520,
			"byteOffset":1560,
			"target":34962
		},
		{
			"buffer":0,
			"byteLength":1040,
			"byteOffset":2080,
			"target":34962
		},
		{
			"buffer":0,
			"byteLength":372,
			"byteOffset":3120,
			"target":34963
		},
		{
			"buffer":0,
			"byteLength":288,
			"byteOffset":3492,
			"target":34962
		},
		{
			"buffer":0,
			"byteLength":288,
			"byteOffset":3780,
			"target":34962
		},
		{
			"buffer":0,
			"byteLength":192,
			"byteOffset":4068,
			"target":34962
		},
		{
			"buffer":0,
			"byteLength":384,
			"byteOffset":4260,
			"target":34962
		},
		{
			"buffer":0,
			"byteLength":72,
			"byteOffset":4644,
			"target":34963
		},
		{
			"buffer":0,
			"byteLength":6708,
			"byteOffset":4716,
			"target":34962
		},
		{
			"buffer":0,
			"byteLength":6708,
			"byteOffset":11424,
			"target":34962
		},
		{
			"buffer":0,
			"byteLength":4472,
			"byteOffset":18132,
			"target":34962
		},
		{
			"buffer":0,
			"byteLength":8944,
			"byteOffset":22604,
			"target":34962
		},
		{
			"buffer":0,
			"byteLength":5760,
			"byteOffset":31548,
			"target":34963
		},
		{
			"buffer":0,
			"byteLength":288,
			"byteOffset":37308,
			"target":34962
		},
		{
			"buffer":0,
			"byteLength":288,
			"byteOffset":37596,
			"target":34962
		},
		{
			"buffer":0,
			"byteLength":192,
			"byteOffset":37884,
			"target":34962
		},
		{
			"buffer":0,
			"byteLength":384,
			"byteOffset":38076,
			"target":34962
		},
		{
			"buffer":0,
			"byteLength":48,
			"byteOffset":38460,
			"target":34962
		},
		{
			"buffer":0,
			"byteLength":48,
			"byteOffset":38508,
			"target":34962
		},
		{
			"buffer":0,
			"byteLength":32,
			"byteOffset":38556,
			"target":34962
		},
		{
			"buffer":0,
			"byteLength":64,
			"byteOffset":38588,
			"target":34962
		},
		{
			"buffer":0,
			"byteLength":12,
			"byteOffset":38652,
			"target":34963
		}
	],
	"buffers":[
		{
			"byteLength":38664,
			"uri":"scene.bin"
		}
	]
}
